<svg width="32" height="32" viewBox="0 0 32 32" fill="none" xmlns="http://www.w3.org/2000/svg">
<path fill-rule="evenodd" clip-rule="evenodd" d="M14.7664 10.0111C12.995 8.96527 11 10.3875 11 12.2842V19.7157C11 21.6124 12.995 23.0347 14.7664 21.9888L21.06 18.2731C22.7577 17.2707 22.7577 14.7293 21.06 13.7269L14.7664 10.0111ZM13 12.2842C13 12.0196 13.1282 11.8345 13.2793 11.74C13.4255 11.6486 13.5892 11.6386 13.7496 11.7334L20.0432 15.4492C20.22 15.5536 20.3333 15.7531 20.3333 16C20.3333 16.2469 20.22 16.4464 20.0432 16.5508L13.7496 20.2667C13.5892 20.3613 13.4255 20.3515 13.2793 20.26C13.1282 20.1656 13 19.9804 13 19.7157V12.2842Z" fill="#1E1E1E"/>
<path fill-rule="evenodd" clip-rule="evenodd" d="M16.0001 1.66666C8.084 1.66666 1.66675 8.08391 1.66675 16C1.66675 23.9161 8.084 30.3333 16.0001 30.3333C23.9162 30.3333 30.3334 23.9161 30.3334 16C30.3334 8.08391 23.9162 1.66666 16.0001 1.66666ZM3.66675 16C3.66675 9.18848 9.18857 3.66666 16.0001 3.66666C22.8115 3.66666 28.3334 9.18848 28.3334 16C28.3334 22.8115 22.8115 28.3333 16.0001 28.3333C9.18857 28.3333 3.66675 22.8115 3.66675 16Z" fill="#1E1E1E"/>
</svg>
