<svg width="121" height="18" viewBox="0 0 121 18" fill="none" xmlns="http://www.w3.org/2000/svg">
<path d="M22.1816 8.30428L22.1061 8.06595C35.5802 3.79826 49.9232 0.636554 57.4134 0.291961L57.4248 0.541697L57.4134 0.291961C59.3222 0.204184 60.6123 0.245891 61.4286 0.497173C61.8434 0.624856 62.161 0.813817 62.3712 1.09018C62.5827 1.3682 62.6622 1.70381 62.6603 2.07765C62.6567 2.80518 62.2454 3.39244 61.1083 4.18616C59.9701 4.98063 58.0314 6.0316 54.8289 7.67028C52.2949 8.9669 50.3086 10.0114 49.0399 10.7101C48.8945 10.7901 48.7588 10.8655 48.6331 10.936C51.4837 10.3257 57.8767 9.04122 60.5928 8.54291C65.4202 7.65719 68.3757 7.22246 74.9998 6.42327C87.5979 4.90328 96.2934 4.31131 112.81 3.84859C117.709 3.71132 118.34 3.72075 119.256 4.03222C119.602 4.14958 120.027 4.26038 120.195 4.28174C120.31 4.29636 120.408 4.31359 120.482 4.33485C120.518 4.34501 120.562 4.35989 120.603 4.38331C120.625 4.39609 120.739 4.46265 120.749 4.60737C120.76 4.76447 120.641 4.84472 120.615 4.86083C120.574 4.88733 120.528 4.90353 120.494 4.91409C120.421 4.93646 120.324 4.95459 120.211 4.97008M22.1816 8.30428L120.177 4.72241C120.208 4.71804 120.238 4.71358 120.265 4.70905C120.277 4.7406 120.294 4.7639 120.307 4.77857C120.327 4.80121 120.346 4.81263 120.352 4.81613C120.358 4.81926 120.361 4.82065 120.361 4.82067C120.361 4.82069 120.356 4.81879 120.345 4.8156C120.314 4.80673 120.262 4.79605 120.185 4.78499M22.1816 8.30428L22.1061 8.06595C21.02 8.40999 19.5892 8.86349 18.9264 9.07377C9.99074 11.909 5.16614 13.7026 1.78104 15.4546L1.78103 15.4546C1.13323 15.7899 0.755117 15.9908 0.547689 16.1423C0.442458 16.2191 0.351086 16.3039 0.298124 16.4131C0.240489 16.532 0.245917 16.6429 0.257336 16.7263L0.25734 16.7264C0.270586 16.8231 0.305749 17.0171 0.499796 17.1079C0.584323 17.1475 0.674007 17.1541 0.754477 17.1492C0.835908 17.1443 0.926454 17.1264 1.02543 17.0999C1.41127 16.9965 2.09456 16.7134 3.30337 16.199C5.81156 15.1316 8.06036 14.3559 14.2569 12.4233C34.964 5.96525 44.6192 3.60315 55.4457 2.33941L55.4167 2.09109M22.1816 8.30428L0.505027 16.6924C0.555767 17.0629 0.769368 17.0057 3.20547 15.969C5.72632 14.8962 7.98577 14.1172 14.1824 12.1847C34.8929 5.72555 44.5662 3.35763 55.4167 2.09109M120.211 4.97008L120.185 4.78499M120.211 4.97008C120.211 4.97008 120.211 4.97008 120.211 4.97007L120.185 4.78499M120.211 4.97008C120.048 4.9924 119.584 5.11428 119.181 5.24507C118.089 5.59935 117.749 5.61963 112.087 5.77448C96.2831 6.20688 87.8812 6.79169 74.6914 8.37708C66.0332 9.41774 59.6458 10.5133 49.6458 12.6732C46.1698 13.424 45.9737 13.4622 45.1891 13.5064C44.5035 13.5449 43.9298 13.4242 43.6034 13.1211C43.4315 12.9615 43.3324 12.7534 43.3327 12.5147C43.3329 12.2836 43.4261 12.05 43.5848 11.8254C43.6516 11.7308 43.7763 11.6266 43.9185 11.5211C44.0698 11.4088 44.2704 11.2741 44.5165 11.1186C45.009 10.8073 45.6954 10.4053 46.5582 9.92195C48.2847 8.95479 50.7279 7.65616 53.7628 6.09595C56.2282 4.82852 57.9883 3.88394 59.1308 3.21146C59.703 2.87463 60.1135 2.60996 60.3786 2.40988C60.446 2.35905 60.5019 2.3139 60.5476 2.27421M120.185 4.78499C120.169 4.78259 120.151 4.78017 120.132 4.77775L120.138 4.72846L120.132 4.77774C120.095 4.77306 120.051 4.76564 120.002 4.75598C119.769 4.80818 119.413 4.90685 119.104 5.00728C118.055 5.3475 117.761 5.36919 112.08 5.52458C96.2699 5.95715 87.8603 6.54241 74.6616 8.12887C65.9945 9.1706 59.5994 10.2675 49.593 12.4289C46.1078 13.1816 45.9352 13.214 45.1751 13.2567C43.8448 13.3316 43.23 12.7607 43.789 11.9696C44.1161 11.5066 47.8097 9.43753 53.8771 6.31829C58.809 3.78286 60.9391 2.529 60.9391 2.16134C60.9391 1.8861 57.5429 1.84287 55.4167 2.09109M60.5476 2.27421C60.6205 2.28583 60.6787 2.29789 60.7219 2.30994C60.7531 2.31864 60.7674 2.32489 60.7708 2.32636C60.7718 2.3268 60.7718 2.32681 60.771 2.32632C60.7689 2.32505 60.7521 2.31492 60.7338 2.29201C60.7136 2.26665 60.6891 2.22172 60.6891 2.16134C60.6891 2.13236 60.6971 2.11599 60.6972 2.11599C60.6972 2.11598 60.6969 2.11683 60.6959 2.11857C60.6916 2.12628 60.6796 2.1442 60.6533 2.17306C60.6271 2.20169 60.5923 2.23533 60.5476 2.27421ZM60.5476 2.27421C60.4901 2.26507 60.4235 2.2562 60.3478 2.24783C60.0078 2.21023 59.526 2.18695 58.9721 2.1799C57.8649 2.16581 56.4954 2.21686 55.4457 2.33941L55.4167 2.09109M120.265 4.54417C120.273 4.52125 120.284 4.50229 120.295 4.48789C120.317 4.45917 120.339 4.44424 120.346 4.43926C120.362 4.42954 120.367 4.43003 120.348 4.43593C120.316 4.4455 120.259 4.45781 120.171 4.47076C120.162 4.47208 120.152 4.4734 120.143 4.47473L120.143 4.47474C120.104 4.48002 120.056 4.48883 120.001 4.50052C120.058 4.51282 120.109 4.52222 120.15 4.52796C120.15 4.52797 120.15 4.52797 120.15 4.52797C120.154 4.52861 120.159 4.5292 120.163 4.52974C120.2 4.53442 120.234 4.53923 120.265 4.54417ZM47.9219 11.3467C47.787 11.3768 47.6712 11.4032 47.5767 11.4255C47.5695 11.3803 47.5495 11.3383 47.5196 11.3042C47.5985 11.2517 47.7014 11.1873 47.8276 11.1116L47.9219 11.3467Z" fill="#D774A3" stroke="#D774A3" stroke-width="0.5"/>
</svg>
