<svg width="18" height="14" viewBox="0 0 18 14" fill="none" xmlns="http://www.w3.org/2000/svg">
<path fill-rule="evenodd" clip-rule="evenodd" d="M10.5117 13.6597C10.2104 13.3585 10.2104 12.87 10.5117 12.5688L15.3662 7.71426L0.771431 7.71426C0.345396 7.71426 1.96184e-06 7.36886 1.96184e-06 6.94283C1.96184e-06 6.51679 0.345396 6.1714 0.771431 6.1714L15.3662 6.1714L10.5117 1.31685C10.2104 1.01558 10.2104 0.527216 10.5117 0.225948C10.813 -0.0753211 11.3014 -0.0753211 11.6026 0.225948L17.7741 6.39738C18.0753 6.69865 18.0753 7.18701 17.7741 7.48828L11.6026 13.6597C11.3014 13.961 10.813 13.961 10.5117 13.6597Z" fill="#D774A3"/>
</svg>
